<svg xmlns="http://www.w3.org/2000/svg" xmlns:xlink="http://www.w3.org/1999/xlink" width="128" zoomAndPan="magnify" viewBox="0 0 96 95.999999" height="128" preserveAspectRatio="xMidYMid meet" version="1.0"><path fill="#00a259" d="M 27.179688 15.378906 C 27.386719 15.757812 27.65625 16.070312 27.976562 16.320312 C 28.296875 16.570312 28.648438 16.726562 29.027344 16.78125 C 29.402344 16.839844 29.78125 16.761719 30.160156 16.550781 C 30.539062 16.339844 30.800781 16.058594 30.957031 15.707031 C 31.109375 15.351562 31.164062 14.972656 31.121094 14.566406 C 31.078125 14.164062 30.953125 13.769531 30.738281 13.390625 C 30.53125 13.015625 30.261719 12.699219 29.9375 12.445312 C 29.613281 12.191406 29.261719 12.039062 28.878906 11.980469 C 28.5 11.929688 28.121094 12.007812 27.742188 12.214844 C 27.363281 12.425781 27.097656 12.707031 26.949219 13.058594 C 26.796875 13.40625 26.746094 13.789062 26.792969 14.199219 C 26.835938 14.605469 26.964844 15 27.175781 15.378906 Z M 27.179688 15.378906 " fill-opacity="1" fill-rule="nonzero"/><path fill="#00a259" d="M 31.078125 79.75 C 30.699219 79.519531 30.3125 79.425781 29.925781 79.464844 C 29.535156 79.507812 29.171875 79.652344 28.828125 79.902344 C 28.484375 80.148438 28.199219 80.460938 27.964844 80.84375 C 27.734375 81.222656 27.589844 81.621094 27.527344 82.035156 C 27.464844 82.449219 27.507812 82.835938 27.648438 83.203125 C 27.789062 83.570312 28.046875 83.867188 28.425781 84.097656 C 28.804688 84.332031 29.191406 84.425781 29.585938 84.386719 C 29.976562 84.347656 30.34375 84.203125 30.683594 83.957031 C 31.027344 83.714844 31.3125 83.402344 31.542969 83.023438 C 31.773438 82.644531 31.921875 82.246094 31.984375 81.828125 C 32.046875 81.410156 32.007812 81.015625 31.863281 80.648438 C 31.71875 80.28125 31.457031 79.980469 31.078125 79.75 Z M 31.078125 79.75 " fill-opacity="1" fill-rule="nonzero"/><path fill="#00a259" d="M 48 0 C 21.488281 0 0 21.488281 0 48 C 0 74.507812 21.488281 95.996094 48 95.996094 C 74.507812 95.996094 95.996094 74.507812 95.996094 48 C 95.996094 21.488281 74.507812 0 48 0 Z M 78.898438 26.707031 C 78.765625 26.808594 78.609375 26.855469 78.457031 26.855469 C 78.230469 26.855469 78.007812 26.753906 77.863281 26.558594 C 77.730469 26.375 77.59375 26.195312 77.453125 26.015625 C 77.203125 25.695312 77.265625 25.230469 77.585938 24.980469 C 77.910156 24.730469 78.371094 24.792969 78.621094 25.113281 C 78.765625 25.296875 78.90625 25.488281 79.046875 25.675781 C 79.292969 26.003906 79.222656 26.464844 78.898438 26.707031 Z M 75.894531 16.835938 L 74.511719 21.972656 L 77.761719 18.675781 L 78.808594 19.707031 L 73.519531 25.070312 L 72.332031 23.902344 L 73.714844 18.765625 L 70.464844 22.058594 L 69.417969 21.027344 L 74.707031 15.664062 Z M 72.242188 13.742188 L 71.449219 14.980469 L 68.695312 13.21875 L 68.027344 14.261719 L 69.855469 15.429688 L 69.0625 16.667969 L 67.234375 15.5 L 66.21875 17.085938 L 68.972656 18.847656 L 68.183594 20.085938 L 64.085938 17.46875 L 68.144531 11.121094 Z M 60.199219 9.171875 L 60.753906 7.808594 L 66.222656 10.03125 L 65.671875 11.390625 L 63.671875 10.582031 L 61.394531 16.199219 L 59.917969 15.601562 L 62.199219 9.980469 Z M 50.800781 10.234375 L 51.601562 5.796875 L 53.167969 6.082031 L 52.367188 10.519531 C 52.308594 10.832031 52.332031 11.128906 52.429688 11.414062 C 52.527344 11.695312 52.683594 11.9375 52.902344 12.140625 C 53.117188 12.339844 53.386719 12.46875 53.707031 12.527344 C 54.023438 12.585938 54.316406 12.558594 54.59375 12.445312 C 54.871094 12.335938 55.105469 12.164062 55.296875 11.933594 C 55.488281 11.703125 55.613281 11.429688 55.667969 11.117188 L 56.46875 6.679688 L 58.039062 6.960938 L 57.234375 11.398438 C 57.15625 11.832031 57 12.226562 56.761719 12.574219 C 56.523438 12.925781 56.226562 13.21875 55.875 13.457031 C 55.519531 13.691406 55.136719 13.855469 54.71875 13.949219 C 54.304688 14.042969 53.878906 14.054688 53.445312 13.972656 C 53.011719 13.894531 52.617188 13.738281 52.253906 13.503906 C 51.894531 13.269531 51.59375 12.980469 51.347656 12.636719 C 51.101562 12.292969 50.929688 11.914062 50.832031 11.503906 C 50.730469 11.089844 50.71875 10.667969 50.796875 10.234375 Z M 46.796875 5.734375 L 46.851562 11.796875 L 49.753906 11.773438 L 49.765625 13.242188 L 45.273438 13.28125 L 45.207031 5.75 Z M 36.296875 9.019531 C 36.472656 8.367188 36.789062 7.8125 37.25 7.351562 C 37.710938 6.886719 38.300781 6.582031 39.019531 6.425781 C 39.347656 6.355469 39.691406 6.328125 40.054688 6.34375 C 40.417969 6.359375 40.773438 6.40625 41.125 6.492188 L 41.609375 8.167969 C 41.265625 8 40.875 7.886719 40.449219 7.839844 C 40.019531 7.789062 39.644531 7.796875 39.328125 7.867188 C 38.894531 7.957031 38.554688 8.148438 38.304688 8.441406 C 38.050781 8.730469 37.886719 9.082031 37.808594 9.484375 C 37.726562 9.890625 37.730469 10.304688 37.824219 10.726562 C 37.914062 11.152344 38.0625 11.535156 38.269531 11.875 C 38.472656 12.210938 38.734375 12.46875 39.050781 12.636719 C 39.367188 12.808594 39.742188 12.847656 40.171875 12.753906 C 40.5 12.683594 40.746094 12.558594 40.910156 12.371094 C 41.074219 12.1875 41.179688 11.964844 41.222656 11.703125 C 41.269531 11.445312 41.273438 11.164062 41.230469 10.863281 L 39.601562 11.210938 L 39.292969 9.773438 L 42.503906 9.089844 L 43.421875 13.375 L 42.34375 13.609375 L 41.933594 13.332031 C 41.785156 13.53125 41.589844 13.707031 41.351562 13.859375 C 41.109375 14.007812 40.820312 14.121094 40.476562 14.195312 C 39.757812 14.347656 39.109375 14.304688 38.535156 14.066406 C 37.957031 13.824219 37.472656 13.441406 37.078125 12.917969 C 36.6875 12.390625 36.414062 11.773438 36.261719 11.0625 C 36.113281 10.351562 36.121094 9.671875 36.296875 9.019531 Z M 25.625 12.328125 C 25.925781 11.753906 26.390625 11.289062 27.027344 10.933594 C 27.660156 10.578125 28.304688 10.425781 28.957031 10.46875 C 29.605469 10.511719 30.207031 10.722656 30.765625 11.097656 C 31.320312 11.476562 31.777344 11.980469 32.128906 12.617188 C 32.484375 13.25 32.675781 13.902344 32.703125 14.570312 C 32.726562 15.238281 32.589844 15.859375 32.285156 16.4375 C 31.976562 17.015625 31.507812 17.480469 30.875 17.832031 C 30.238281 18.1875 29.597656 18.339844 28.953125 18.296875 C 28.304688 18.25 27.703125 18.042969 27.148438 17.667969 C 26.59375 17.292969 26.140625 16.789062 25.789062 16.152344 C 25.433594 15.519531 25.242188 14.867188 25.214844 14.195312 C 25.1875 13.523438 25.320312 12.898438 25.625 12.324219 Z M 18.417969 17.566406 L 23.476562 19.207031 L 20.347656 15.792969 L 21.433594 14.800781 L 26.519531 20.355469 L 25.292969 21.480469 L 20.230469 19.835938 L 23.359375 23.25 L 22.277344 24.246094 L 17.1875 18.691406 Z M 19.289062 25.15625 C 19.144531 25.332031 19.003906 25.507812 18.863281 25.683594 C 18.714844 25.871094 18.5 25.964844 18.28125 25.964844 C 18.121094 25.964844 17.960938 25.914062 17.824219 25.804688 C 17.503906 25.554688 17.449219 25.089844 17.703125 24.769531 C 17.851562 24.585938 17.996094 24.402344 18.148438 24.21875 C 18.40625 23.902344 18.871094 23.859375 19.1875 24.117188 C 19.503906 24.375 19.546875 24.84375 19.289062 25.15625 Z M 11.421875 36.335938 C 11.5625 35.917969 11.710938 35.5 11.867188 35.089844 C 12.007812 34.707031 12.433594 34.515625 12.816406 34.65625 C 13.199219 34.800781 13.390625 35.226562 13.246094 35.609375 C 13.101562 36.003906 12.957031 36.40625 12.820312 36.804688 C 12.71875 37.113281 12.429688 37.308594 12.121094 37.308594 C 12.042969 37.308594 11.964844 37.296875 11.886719 37.269531 C 11.5 37.140625 11.292969 36.722656 11.421875 36.335938 Z M 9.867188 42.753906 C 9.933594 42.320312 10.007812 41.882812 10.089844 41.449219 C 10.164062 41.046875 10.550781 40.785156 10.949219 40.863281 C 11.351562 40.9375 11.613281 41.324219 11.539062 41.722656 C 11.460938 42.136719 11.386719 42.558594 11.324219 42.976562 C 11.269531 43.34375 10.953125 43.605469 10.597656 43.605469 C 10.558594 43.605469 10.523438 43.601562 10.484375 43.59375 C 10.082031 43.535156 9.804688 43.15625 9.867188 42.753906 Z M 9.421875 49.34375 C 9.417969 49.121094 9.417969 48.898438 9.417969 48.679688 C 9.417969 48.457031 9.417969 48.238281 9.421875 48.019531 C 9.429688 47.613281 9.765625 47.289062 10.171875 47.292969 C 10.582031 47.300781 10.90625 47.636719 10.898438 48.042969 C 10.894531 48.253906 10.894531 48.464844 10.894531 48.679688 C 10.894531 48.890625 10.894531 49.105469 10.898438 49.316406 C 10.90625 49.722656 10.582031 50.058594 10.171875 50.066406 L 10.160156 50.066406 C 9.757812 50.066406 9.429688 49.746094 9.421875 49.34375 Z M 10.953125 56.5 C 10.90625 56.507812 10.859375 56.511719 10.8125 56.511719 C 10.464844 56.511719 10.15625 56.265625 10.089844 55.910156 C 10.007812 55.480469 9.933594 55.042969 9.867188 54.605469 C 9.804688 54.203125 10.082031 53.828125 10.484375 53.765625 C 10.886719 53.707031 11.265625 53.980469 11.324219 54.382812 C 11.390625 54.800781 11.460938 55.222656 11.539062 55.636719 C 11.617188 56.039062 11.351562 56.425781 10.953125 56.5 Z M 12.816406 62.703125 C 12.730469 62.734375 12.644531 62.75 12.558594 62.75 C 12.257812 62.75 11.976562 62.566406 11.867188 62.269531 C 11.710938 61.859375 11.5625 61.441406 11.421875 61.023438 C 11.292969 60.636719 11.5 60.21875 11.886719 60.089844 C 12.273438 59.957031 12.691406 60.167969 12.820312 60.550781 C 12.957031 60.953125 13.101562 61.355469 13.246094 61.75 C 13.390625 62.132812 13.199219 62.558594 12.816406 62.699219 Z M 14.0625 30.28125 C 14.269531 29.898438 14.488281 29.511719 14.710938 29.128906 C 14.917969 28.78125 15.371094 28.664062 15.722656 28.871094 C 16.074219 29.074219 16.191406 29.527344 15.984375 29.878906 C 15.769531 30.242188 15.558594 30.617188 15.359375 30.984375 C 15.226562 31.230469 14.972656 31.371094 14.707031 31.371094 C 14.589844 31.371094 14.46875 31.34375 14.359375 31.28125 C 14 31.085938 13.867188 30.640625 14.0625 30.28125 Z M 15.726562 68.488281 C 15.609375 68.558594 15.480469 68.59375 15.351562 68.59375 C 15.097656 68.59375 14.851562 68.460938 14.714844 68.226562 C 14.492188 67.847656 14.273438 67.460938 14.0625 67.078125 C 13.867188 66.71875 14 66.269531 14.359375 66.074219 C 14.71875 65.878906 15.164062 66.011719 15.359375 66.371094 C 15.5625 66.742188 15.773438 67.113281 15.984375 67.476562 C 16.191406 67.828125 16.074219 68.28125 15.722656 68.488281 Z M 26.175781 26.761719 C 32.003906 20.929688 39.753906 17.722656 47.996094 17.722656 C 56.242188 17.722656 63.992188 20.933594 69.820312 26.761719 C 75.648438 32.589844 78.859375 40.339844 78.859375 48.582031 C 78.859375 56.824219 75.648438 64.574219 69.820312 70.402344 C 63.988281 76.234375 56.242188 79.441406 47.996094 79.441406 C 39.753906 79.441406 32.003906 76.230469 26.175781 70.402344 C 20.347656 64.574219 17.136719 56.824219 17.136719 48.582031 C 17.136719 40.339844 20.347656 32.589844 26.175781 26.761719 Z M 17.824219 71.550781 C 18.144531 71.296875 18.609375 71.351562 18.863281 71.671875 C 19 71.847656 19.144531 72.023438 19.289062 72.199219 C 19.546875 72.515625 19.5 72.980469 19.1875 73.238281 C 19.050781 73.351562 18.882812 73.40625 18.71875 73.40625 C 18.507812 73.40625 18.292969 73.3125 18.148438 73.136719 C 18 72.957031 17.851562 72.773438 17.707031 72.585938 C 17.453125 72.269531 17.507812 71.800781 17.824219 71.550781 Z M 20.898438 79.902344 L 22.46875 74.667969 L 19.039062 77.957031 L 17.992188 76.867188 L 23.578125 71.519531 L 24.761719 72.753906 L 23.191406 77.984375 L 26.625 74.695312 L 27.667969 75.785156 L 22.082031 81.136719 Z M 33.605469 81.886719 C 33.546875 82.574219 33.324219 83.238281 32.9375 83.875 C 32.546875 84.511719 32.0625 85.011719 31.480469 85.375 C 30.894531 85.734375 30.269531 85.925781 29.601562 85.941406 C 28.929688 85.960938 28.277344 85.777344 27.640625 85.386719 C 27.003906 85 26.542969 84.503906 26.253906 83.902344 C 25.96875 83.296875 25.851562 82.65625 25.90625 81.972656 C 25.960938 81.289062 26.183594 80.628906 26.570312 79.992188 C 26.957031 79.355469 27.445312 78.855469 28.03125 78.488281 C 28.617188 78.125 29.242188 77.929688 29.910156 77.910156 C 30.574219 77.890625 31.226562 78.074219 31.863281 78.460938 C 32.5 78.851562 32.964844 79.347656 33.253906 79.949219 C 33.542969 80.554688 33.660156 81.199219 33.605469 81.886719 Z M 42.773438 90.703125 L 41.667969 90.460938 L 41.402344 90.03125 C 41.175781 90.152344 40.921875 90.234375 40.632812 90.273438 C 40.347656 90.3125 40.027344 90.296875 39.671875 90.21875 C 38.9375 90.058594 38.347656 89.742188 37.910156 89.277344 C 37.46875 88.804688 37.179688 88.242188 37.035156 87.585938 C 36.890625 86.929688 36.898438 86.234375 37.054688 85.503906 C 37.214844 84.777344 37.515625 84.144531 37.953125 83.609375 C 38.390625 83.074219 38.921875 82.6875 39.550781 82.449219 C 40.175781 82.210938 40.859375 82.175781 41.597656 82.335938 C 41.933594 82.410156 42.265625 82.53125 42.597656 82.695312 C 42.929688 82.863281 43.246094 83.058594 43.539062 83.289062 L 43.28125 85.058594 C 43.03125 84.753906 42.714844 84.488281 42.335938 84.261719 C 41.957031 84.035156 41.601562 83.882812 41.273438 83.8125 C 40.832031 83.714844 40.433594 83.75 40.074219 83.917969 C 39.714844 84.082031 39.414062 84.339844 39.164062 84.683594 C 38.917969 85.03125 38.746094 85.417969 38.652344 85.855469 C 38.558594 86.289062 38.535156 86.707031 38.585938 87.113281 C 38.632812 87.519531 38.769531 87.867188 38.996094 88.160156 C 39.21875 88.457031 39.550781 88.648438 39.992188 88.746094 C 40.328125 88.820312 40.613281 88.804688 40.847656 88.699219 C 41.082031 88.597656 41.273438 88.433594 41.425781 88.207031 C 41.574219 87.984375 41.699219 87.722656 41.789062 87.425781 L 40.117188 87.058594 L 40.4375 85.585938 L 43.730469 86.300781 Z M 46.183594 90.949219 L 46.171875 83.214844 L 47.804688 83.210938 L 47.816406 89.4375 L 50.796875 89.433594 L 50.796875 90.941406 Z M 58.683594 87.695312 C 58.59375 88.121094 58.425781 88.515625 58.183594 88.875 C 57.9375 89.234375 57.636719 89.542969 57.277344 89.792969 C 56.917969 90.042969 56.519531 90.214844 56.074219 90.308594 C 55.632812 90.402344 55.195312 90.410156 54.761719 90.324219 C 54.328125 90.242188 53.929688 90.085938 53.5625 89.855469 C 53.195312 89.625 52.886719 89.332031 52.632812 88.976562 C 52.375 88.625 52.203125 88.226562 52.109375 87.785156 L 51.148438 83.253906 L 52.75 82.917969 L 53.707031 87.445312 C 53.777344 87.765625 53.914062 88.042969 54.117188 88.273438 C 54.320312 88.503906 54.5625 88.671875 54.847656 88.78125 C 55.128906 88.886719 55.4375 88.90625 55.765625 88.835938 C 56.082031 88.769531 56.355469 88.625 56.574219 88.414062 C 56.792969 88.199219 56.953125 87.945312 57.042969 87.652344 C 57.132812 87.359375 57.144531 87.050781 57.078125 86.730469 L 56.121094 82.203125 L 57.71875 81.863281 L 58.679688 86.390625 C 58.773438 86.835938 58.773438 87.269531 58.683594 87.695312 Z M 64.097656 87.476562 L 61.433594 81.851562 L 59.433594 82.796875 L 58.785156 81.433594 L 64.265625 78.839844 L 64.910156 80.203125 L 62.910156 81.148438 L 65.574219 86.777344 Z M 69.449219 84.578125 L 64.8125 78.386719 L 68.8125 75.394531 L 69.714844 76.601562 L 67.027344 78.613281 L 67.789062 79.628906 L 69.570312 78.296875 L 70.472656 79.503906 L 68.691406 80.835938 L 69.851562 82.386719 L 72.542969 80.375 L 73.445312 81.582031 L 69.449219 84.574219 Z M 78.511719 76.214844 L 73.140625 75.203125 L 76.777344 78.269531 L 75.800781 79.421875 L 69.890625 74.433594 L 70.996094 73.125 L 76.367188 74.136719 L 72.730469 71.070312 L 73.707031 69.917969 L 79.617188 74.90625 L 78.511719 76.210938 Z M 79.800781 70.632812 C 79.664062 70.828125 79.53125 71.019531 79.390625 71.210938 C 79.246094 71.410156 79.023438 71.519531 78.792969 71.519531 C 78.640625 71.519531 78.492188 71.472656 78.363281 71.378906 C 78.03125 71.140625 77.957031 70.679688 78.195312 70.347656 C 78.328125 70.164062 78.457031 69.976562 78.585938 69.792969 C 78.820312 69.457031 79.28125 69.375 79.613281 69.605469 C 79.949219 69.839844 80.03125 70.296875 79.800781 70.632812 Z M 85.554688 57.824219 C 85.445312 58.28125 85.324219 58.742188 85.195312 59.191406 C 85.105469 59.515625 84.808594 59.730469 84.484375 59.730469 C 84.417969 59.730469 84.351562 59.71875 84.285156 59.703125 C 83.894531 59.589844 83.664062 59.183594 83.777344 58.792969 C 83.898438 58.359375 84.011719 57.917969 84.121094 57.476562 C 84.214844 57.082031 84.613281 56.839844 85.011719 56.933594 C 85.40625 57.03125 85.648438 57.429688 85.554688 57.824219 Z M 86.472656 52.261719 C 86.441406 52.644531 86.117188 52.929688 85.738281 52.929688 C 85.714844 52.929688 85.695312 52.929688 85.671875 52.929688 C 85.265625 52.890625 84.964844 52.53125 85.003906 52.125 C 85.042969 51.675781 85.078125 51.222656 85.101562 50.773438 C 85.125 50.363281 85.472656 50.050781 85.878906 50.074219 C 86.289062 50.097656 86.601562 50.445312 86.578125 50.855469 C 86.550781 51.320312 86.515625 51.792969 86.472656 52.261719 Z M 86.335938 43.8125 C 86.394531 44.277344 86.445312 44.75 86.484375 45.214844 C 86.523438 45.621094 86.222656 45.976562 85.816406 46.015625 C 85.792969 46.015625 85.773438 46.015625 85.75 46.015625 C 85.371094 46.015625 85.050781 45.726562 85.015625 45.34375 C 84.976562 44.894531 84.925781 44.441406 84.871094 43.992188 C 84.820312 43.589844 85.109375 43.21875 85.511719 43.167969 C 85.917969 43.117188 86.285156 43.40625 86.335938 43.808594 Z M 83.898438 36.449219 C 84.289062 36.324219 84.703125 36.539062 84.824219 36.925781 C 84.96875 37.375 85.105469 37.828125 85.226562 38.28125 C 85.335938 38.671875 85.109375 39.078125 84.714844 39.1875 C 84.648438 39.207031 84.582031 39.214844 84.515625 39.214844 C 84.195312 39.214844 83.894531 39 83.804688 38.675781 C 83.683594 38.242188 83.554688 37.800781 83.417969 37.375 C 83.292969 36.984375 83.507812 36.570312 83.898438 36.449219 Z M 83.273438 64.496094 C 83.082031 64.921875 82.878906 65.351562 82.667969 65.773438 C 82.542969 66.03125 82.28125 66.183594 82.007812 66.183594 C 81.894531 66.183594 81.785156 66.160156 81.679688 66.105469 C 81.3125 65.925781 81.164062 65.484375 81.34375 65.117188 C 81.542969 64.710938 81.738281 64.300781 81.925781 63.890625 C 82.089844 63.519531 82.527344 63.355469 82.898438 63.519531 C 83.273438 63.6875 83.4375 64.125 83.269531 64.496094 Z M 82.078125 30.4375 C 82.296875 30.847656 82.515625 31.269531 82.722656 31.691406 C 82.902344 32.058594 82.75 32.5 82.382812 32.679688 C 82.28125 32.730469 82.167969 32.753906 82.058594 32.753906 C 81.789062 32.753906 81.527344 32.605469 81.398438 32.34375 C 81.199219 31.9375 80.988281 31.53125 80.777344 31.132812 C 80.582031 30.777344 80.71875 30.328125 81.078125 30.132812 C 81.4375 29.941406 81.882812 30.074219 82.078125 30.4375 Z M 82.078125 30.4375 " fill-opacity="1" fill-rule="nonzero"/><path fill="#00a259" d="M 47.0625 65.871094 C 42.25 58.949219 34.394531 51.339844 34.394531 51.339844 C 34.394531 51.339844 38.21875 66.910156 43.679688 73.496094 C 43.820312 71.554688 44.941406 69.03125 47.0625 65.871094 Z M 47.0625 65.871094 " fill-opacity="1" fill-rule="nonzero"/><path fill="#00a259" d="M 46.355469 76.164062 C 54.777344 79.109375 61.601562 51.339844 61.601562 51.339844 C 61.601562 51.339844 40.347656 71.921875 46.355469 76.164062 Z M 46.355469 76.164062 " fill-opacity="1" fill-rule="nonzero"/><path fill="#00a259" d="M 47.0625 51.1875 C 42.25 44.269531 34.394531 36.660156 34.394531 36.660156 C 34.394531 36.660156 38.21875 52.226562 43.679688 58.8125 C 43.820312 56.875 44.941406 54.347656 47.0625 51.1875 Z M 47.0625 51.1875 " fill-opacity="1" fill-rule="nonzero"/><path fill="#00a259" d="M 46.355469 61.484375 C 54.777344 64.429688 61.601562 36.660156 61.601562 36.660156 C 61.601562 36.660156 40.347656 57.242188 46.355469 61.484375 Z M 46.355469 61.484375 " fill-opacity="1" fill-rule="nonzero"/><path fill="#00a259" d="M 47.21875 47.453125 C 56.355469 47.183594 48.445312 19.617188 48.445312 19.617188 C 48.445312 19.617188 39.617188 45.703125 47.21875 47.453125 Z M 47.21875 47.453125 " fill-opacity="1" fill-rule="nonzero"/></svg>