<svg xmlns="http://www.w3.org/2000/svg" xmlns:xlink="http://www.w3.org/1999/xlink" width="128" zoomAndPan="magnify" viewBox="0 0 96 95.999999" height="128" preserveAspectRatio="xMidYMid meet" version="1.0"><path fill="#38a93f" d="M 18.121094 18.019531 L 24.3125 20.941406 L 24.332031 20.925781 L 22.269531 14.394531 C 22.164062 14.019531 22.285156 13.605469 22.597656 13.332031 C 23.027344 12.957031 23.660156 13.007812 24.027344 13.429688 C 24.148438 13.566406 24.230469 13.71875 24.28125 13.878906 L 26.582031 21.738281 C 26.722656 22.21875 26.527344 22.664062 26.136719 23.007812 C 25.753906 23.339844 25.285156 23.472656 24.820312 23.277344 L 17.347656 19.941406 C 17.195312 19.867188 17.046875 19.773438 16.925781 19.636719 C 16.558594 19.214844 16.601562 18.574219 17.023438 18.207031 C 17.34375 17.925781 17.773438 17.859375 18.121094 18.023438 Z M 18.121094 18.019531 " fill-opacity="1" fill-rule="nonzero"/><path fill="#38a93f" d="M 33.035156 18.203125 C 32.113281 18.589844 31.433594 18.3125 31.046875 17.390625 L 28.554688 11.449219 C 28.171875 10.527344 28.449219 9.847656 29.371094 9.460938 L 34.269531 7.40625 C 34.867188 7.15625 35.339844 7.335938 35.566406 7.878906 C 35.796875 8.429688 35.589844 8.878906 34.992188 9.132812 L 30.667969 10.941406 L 31.390625 12.667969 L 35.691406 10.867188 C 36.265625 10.625 36.71875 10.800781 36.941406 11.328125 C 37.160156 11.855469 36.964844 12.289062 36.390625 12.53125 L 32.089844 14.335938 L 32.886719 16.238281 L 37.210938 14.425781 C 37.8125 14.175781 38.277344 14.347656 38.507812 14.898438 C 38.734375 15.4375 38.535156 15.902344 37.933594 16.152344 Z M 33.035156 18.203125 " fill-opacity="1" fill-rule="nonzero"/><path fill="#38a93f" d="M 40.542969 10.410156 C 40.347656 7.546875 42.285156 5.410156 45.253906 5.210938 C 46.964844 5.09375 48.273438 5.40625 48.917969 6.078125 C 49.046875 6.214844 49.125 6.402344 49.136719 6.597656 C 49.171875 7.144531 48.773438 7.597656 48.21875 7.636719 C 48.0625 7.648438 47.902344 7.632812 47.71875 7.582031 C 46.847656 7.199219 46.144531 7.035156 45.433594 7.085938 C 43.644531 7.207031 42.519531 8.492188 42.640625 10.269531 C 42.765625 12.058594 44.050781 13.167969 45.878906 13.042969 C 47.378906 12.941406 48.371094 12.210938 48.304688 11.25 L 48.269531 10.71875 L 45.445312 10.910156 C 44.851562 10.953125 44.410156 10.605469 44.371094 10.046875 C 44.332031 9.488281 44.722656 9.085938 45.316406 9.042969 L 49.023438 8.792969 C 49.890625 8.734375 50.347656 9.132812 50.40625 10.015625 L 50.46875 10.894531 C 50.617188 13.097656 48.789062 14.730469 45.964844 14.925781 C 42.945312 15.128906 40.738281 13.300781 40.542969 10.410156 Z M 40.542969 10.410156 " fill-opacity="1" fill-rule="nonzero"/><path fill="#38a93f" d="M 62.125 15.914062 C 62.160156 16.085938 62.148438 16.257812 62.101562 16.433594 C 61.949219 16.972656 61.386719 17.285156 60.847656 17.132812 C 60.449219 17.015625 60.175781 16.695312 60.097656 16.308594 L 59.804688 14.675781 L 55.421875 13.429688 L 54.300781 14.660156 C 54.042969 14.953125 53.640625 15.082031 53.226562 14.964844 C 52.691406 14.8125 52.378906 14.25 52.53125 13.714844 C 52.578125 13.539062 52.675781 13.390625 52.78125 13.257812 L 58.359375 7.121094 C 58.710938 6.746094 59.179688 6.664062 59.667969 6.804688 C 60.167969 6.945312 60.523438 7.261719 60.609375 7.757812 Z M 58.976562 9.183594 L 56.527344 11.949219 L 59.640625 12.832031 L 59 9.191406 L 58.972656 9.183594 Z M 58.976562 9.183594 " fill-opacity="1" fill-rule="nonzero"/><path fill="#38a93f" d="M 64.390625 17.515625 L 68.59375 11.550781 C 69.007812 10.96875 69.582031 10.832031 70.121094 11.210938 C 70.460938 11.453125 70.636719 11.671875 70.671875 12.125 L 71.097656 18.890625 L 71.117188 18.90625 L 73.746094 15.179688 C 74.15625 14.597656 74.738281 14.46875 75.28125 14.847656 C 75.832031 15.238281 75.898438 15.820312 75.484375 16.40625 L 71.28125 22.371094 C 70.871094 22.957031 70.296875 23.09375 69.753906 22.710938 C 69.414062 22.472656 69.253906 22.25 69.207031 21.800781 L 68.78125 15.03125 L 68.757812 15.019531 L 66.132812 18.746094 C 65.71875 19.328125 65.136719 19.457031 64.59375 19.078125 C 64.042969 18.6875 63.980469 18.101562 64.390625 17.515625 Z M 64.390625 17.515625 " fill-opacity="1" fill-rule="nonzero"/><path fill="#38a93f" d="M 11.140625 67.921875 L 16.84375 64.089844 C 17.660156 63.539062 18.375 63.667969 18.925781 64.488281 L 20.222656 66.417969 C 21.96875 69.015625 21.855469 71.082031 19.914062 72.386719 C 17.960938 73.695312 16.007812 73.023438 14.261719 70.421875 L 13.339844 69.054688 L 12.351562 69.722656 C 11.746094 70.128906 11.15625 70.039062 10.777344 69.476562 C 10.394531 68.90625 10.535156 68.328125 11.140625 67.921875 Z M 14.871094 68.027344 L 15.804688 69.417969 C 16.789062 70.882812 17.769531 71.292969 18.730469 70.644531 C 19.699219 69.992188 19.691406 68.933594 18.707031 67.46875 L 17.773438 66.078125 L 14.871094 68.023438 Z M 14.871094 68.027344 " fill-opacity="1" fill-rule="nonzero"/><path fill="#38a93f" d="M 25.960938 82.863281 C 26.074219 83.179688 26.023438 83.457031 25.832031 83.699219 C 25.464844 84.171875 24.824219 84.3125 24.324219 83.921875 C 24.109375 83.753906 23.996094 83.519531 23.898438 83.246094 L 22.050781 78.140625 L 22.03125 78.125 L 20.808594 79.691406 C 20.359375 80.265625 19.769531 80.363281 19.238281 79.949219 C 18.695312 79.523438 18.652344 78.929688 19.101562 78.355469 L 23.332031 72.941406 C 23.941406 72.164062 24.660156 72.066406 25.4375 72.675781 L 27.574219 74.347656 C 29.835938 76.113281 30.355469 77.921875 29.066406 79.570312 C 28.019531 80.910156 26.601562 81.121094 24.898438 80.21875 Z M 24.839844 74.53125 L 23.039062 76.835938 L 24.605469 78.058594 C 25.832031 79.019531 26.742188 79.121094 27.351562 78.34375 C 27.945312 77.585938 27.632812 76.71875 26.40625 75.757812 L 24.839844 74.535156 Z M 24.839844 74.53125 " fill-opacity="1" fill-rule="nonzero"/><path fill="#38a93f" d="M 30.824219 82.355469 C 31.734375 79.703125 34.433594 78.445312 37.183594 79.390625 C 39.9375 80.335938 41.292969 82.984375 40.382812 85.636719 C 39.472656 88.292969 36.773438 89.550781 34.019531 88.605469 C 31.269531 87.660156 29.914062 85.011719 30.824219 82.355469 Z M 38.378906 84.949219 C 38.925781 83.351562 38.164062 81.773438 36.554688 81.21875 C 34.945312 80.667969 33.375 81.445312 32.824219 83.042969 C 32.277344 84.640625 33.039062 86.222656 34.648438 86.773438 C 36.257812 87.324219 37.828125 86.546875 38.378906 84.949219 Z M 38.378906 84.949219 " fill-opacity="1" fill-rule="nonzero"/><path fill="#38a93f" d="M 45.550781 90.824219 C 44.554688 90.828125 44.03125 90.3125 44.023438 89.3125 L 43.988281 82.871094 C 43.980469 81.871094 44.496094 81.347656 45.496094 81.34375 L 47.496094 81.332031 C 50.875 81.3125 52.898438 83.078125 52.914062 86.039062 C 52.933594 89 50.929688 90.792969 47.554688 90.8125 Z M 46.164062 88.914062 L 47.453125 88.90625 C 49.570312 88.890625 50.820312 87.832031 50.8125 86.054688 C 50.800781 84.273438 49.535156 83.230469 47.417969 83.242188 L 46.132812 83.25 Z M 46.164062 88.914062 " fill-opacity="1" fill-rule="nonzero"/><path fill="#38a93f" d="M 56.664062 86.121094 L 55.222656 81.945312 C 54.984375 81.257812 55.21875 80.707031 55.855469 80.488281 C 56.496094 80.265625 57.019531 80.554688 57.257812 81.242188 L 58.589844 85.09375 C 59.144531 86.691406 60.058594 87.226562 61.421875 86.753906 C 62.769531 86.289062 63.15625 85.300781 62.605469 83.707031 L 61.269531 79.851562 C 61.03125 79.164062 61.269531 78.613281 61.90625 78.394531 C 62.558594 78.167969 63.082031 78.453125 63.320312 79.140625 L 64.765625 83.316406 C 65.621094 85.78125 64.628906 87.691406 62.054688 88.585938 C 59.464844 89.480469 57.519531 88.585938 56.664062 86.121094 Z M 56.664062 86.121094 " fill-opacity="1" fill-rule="nonzero"/><path fill="#38a93f" d="M 67.636719 80.910156 C 65.882812 78.621094 66.324219 75.78125 68.683594 73.972656 C 69.910156 73.03125 71.058594 72.546875 71.796875 72.636719 C 71.996094 72.660156 72.195312 72.769531 72.339844 72.957031 C 72.671875 73.390625 72.589844 73.992188 72.15625 74.324219 C 72.035156 74.417969 71.867188 74.496094 71.75 74.539062 C 70.976562 74.789062 70.425781 75.074219 69.902344 75.480469 C 68.488281 76.5625 68.261719 78.207031 69.335938 79.609375 C 70.410156 81.011719 72.058594 81.222656 73.472656 80.140625 C 73.996094 79.738281 74.417969 79.285156 74.859375 78.601562 C 74.929688 78.5 75.050781 78.355469 75.171875 78.261719 C 75.605469 77.929688 76.207031 78.011719 76.539062 78.441406 C 76.679688 78.628906 76.734375 78.847656 76.710938 79.050781 C 76.601562 79.785156 75.832031 80.765625 74.605469 81.707031 C 72.246094 83.515625 69.386719 83.203125 67.636719 80.914062 Z M 67.636719 80.910156 " fill-opacity="1" fill-rule="nonzero"/><path fill="#38a93f" d="M 81.660156 72.664062 L 76.398438 69.011719 L 74.992188 71.039062 C 74.601562 71.605469 74.078125 71.71875 73.566406 71.363281 C 73.054688 71.007812 72.980469 70.480469 73.371094 69.914062 L 77.429688 64.066406 C 77.816406 63.511719 78.335938 63.398438 78.847656 63.753906 C 79.359375 64.109375 79.4375 64.636719 79.050781 65.191406 L 77.644531 67.21875 L 82.90625 70.871094 C 83.511719 71.292969 83.636719 71.871094 83.242188 72.433594 C 82.851562 73 82.269531 73.085938 81.660156 72.664062 Z M 81.660156 72.664062 " fill-opacity="1" fill-rule="nonzero"/><path fill="#38a93f" d="M 48 77.953125 C 31.484375 77.953125 18.046875 64.515625 18.046875 48 C 18.046875 31.484375 31.484375 18.046875 48 18.046875 C 64.515625 18.046875 77.953125 31.484375 77.953125 48 C 77.953125 64.515625 64.515625 77.953125 48 77.953125 Z M 48 19.902344 C 32.507812 19.902344 19.902344 32.507812 19.902344 48 C 19.902344 63.492188 32.507812 76.097656 48 76.097656 C 63.492188 76.097656 76.097656 63.492188 76.097656 48 C 76.097656 32.507812 63.492188 19.902344 48 19.902344 Z M 48 19.902344 " fill-opacity="1" fill-rule="nonzero"/><path fill="#38a93f" d="M 48 96 C 21.53125 96 0 74.46875 0 48 C 0 21.53125 21.53125 0 48 0 C 74.46875 0 96 21.53125 96 48 C 96 74.46875 74.46875 96 48 96 Z M 48 1.855469 C 22.554688 1.855469 1.855469 22.558594 1.855469 48 C 1.855469 73.441406 22.558594 94.144531 48 94.144531 C 73.441406 94.144531 94.144531 73.445312 94.144531 48 C 94.144531 22.554688 73.445312 1.855469 48 1.855469 Z M 48 1.855469 " fill-opacity="1" fill-rule="nonzero"/><path fill="#38a93f" d="M 11.824219 60.707031 C 11.433594 60.707031 11.070312 60.457031 10.941406 60.066406 C 9.675781 56.183594 9.035156 52.125 9.035156 48 C 9.035156 40.152344 11.355469 32.585938 15.75 26.125 C 16.039062 25.703125 16.617188 25.589844 17.039062 25.878906 C 17.464844 26.167969 17.574219 26.742188 17.285156 27.167969 C 13.101562 33.320312 10.890625 40.523438 10.890625 48 C 10.890625 51.929688 11.5 55.796875 12.707031 59.492188 C 12.867188 59.980469 12.597656 60.503906 12.113281 60.660156 C 12.015625 60.691406 11.917969 60.707031 11.824219 60.707031 Z M 11.824219 60.707031 " fill-opacity="1" fill-rule="nonzero"/><path fill="#38a93f" d="M 84.175781 60.707031 C 84.082031 60.707031 83.984375 60.691406 83.890625 60.660156 C 83.402344 60.503906 83.136719 59.976562 83.292969 59.492188 C 84.5 55.796875 85.109375 51.929688 85.109375 48 C 85.109375 40.523438 82.898438 33.320312 78.714844 27.167969 C 78.425781 26.742188 78.539062 26.167969 78.960938 25.878906 C 79.382812 25.589844 79.960938 25.699219 80.25 26.125 C 84.644531 32.585938 86.964844 40.148438 86.964844 48 C 86.964844 52.125 86.324219 56.183594 85.058594 60.066406 C 84.933594 60.457031 84.570312 60.707031 84.179688 60.707031 Z M 84.175781 60.707031 " fill-opacity="1" fill-rule="nonzero"/><path fill="#38a93f" d="M 45.730469 55.453125 C 45.730469 55.46875 45.730469 55.488281 45.730469 55.503906 C 45.730469 56 45.753906 56.496094 45.765625 56.992188 C 45.8125 57.554688 45.835938 58.128906 45.835938 58.703125 C 45.835938 63.476562 44.320312 65.589844 44.320312 67.839844 C 44.320312 68.082031 44.347656 68.292969 44.410156 68.453125 C 44.5625 68.859375 44.914062 69.054688 45.3125 69.054688 C 46.503906 69.054688 46.625 67.4375 46.699219 66.3125 C 46.742188 65.632812 46.820312 64.953125 46.917969 64.28125 C 47.03125 63.453125 47.183594 62.632812 47.371094 61.820312 C 47.375 61.824219 47.378906 61.828125 47.386719 61.832031 C 47.957031 59.390625 48.835938 57.023438 49.980469 54.800781 C 50.414062 53.960938 50.882812 53.140625 51.386719 52.347656 C 52.730469 50.273438 54.359375 48.382812 56.222656 46.765625 C 57.21875 45.902344 58.28125 45.113281 59.40625 44.417969 L 60.148438 43.972656 C 60.449219 43.789062 60.824219 43.597656 61.179688 43.414062 C 61.1875 43.410156 61.234375 43.382812 61.253906 43.382812 C 61.261719 43.382812 61.265625 43.382812 61.265625 43.390625 C 61.265625 43.414062 61.238281 43.429688 61.222656 43.441406 C 60.875 43.660156 60.511719 43.890625 60.226562 44.09375 C 60.070312 44.203125 59.484375 44.628906 59.351562 44.71875 C 59.058594 44.941406 58.773438 45.164062 58.492188 45.394531 C 58.328125 45.53125 58.164062 45.671875 58.003906 45.808594 C 53.71875 49.546875 51.179688 54.546875 49.644531 60.242188 C 49.523438 60.683594 49.320312 61.171875 49.320312 61.640625 C 49.320312 62.429688 50.007812 62.609375 50.796875 62.609375 C 51.207031 62.609375 51.613281 62.5625 51.898438 62.554688 C 66.03125 62.25 62.285156 47.714844 71.074219 39.582031 C 71.265625 39.40625 71.15625 39.085938 70.894531 39.0625 C 70.660156 39.042969 70.425781 39.035156 70.1875 39.035156 C 59.433594 39.035156 45.769531 43.125 45.730469 55.453125 Z M 45.730469 55.453125 " fill-opacity="1" fill-rule="nonzero"/><path fill="#38a93f" d="M 43.886719 54.695312 C 44.242188 55.65625 44.410156 56.605469 44.410156 57.597656 C 44.410156 59.0625 44.289062 60.21875 42.851562 60.21875 C 42.550781 60.21875 42.238281 60.171875 41.929688 60.152344 C 29.726562 59.308594 32.613281 46.398438 24.992188 38.765625 C 24.644531 38.421875 24.886719 37.820312 25.378906 37.820312 L 25.390625 37.820312 C 33.542969 37.820312 43.453125 40.292969 47.15625 47.230469 C 47.246094 47.398438 47.230469 47.601562 47.121094 47.753906 C 46.105469 49.152344 45.367188 50.671875 44.859375 52.277344 C 44.804688 52.449219 44.734375 52.515625 44.65625 52.515625 C 44.480469 52.515625 44.277344 52.183594 44.179688 52.007812 C 43.890625 51.488281 43.589844 50.980469 43.273438 50.480469 C 41.996094 48.507812 40.449219 46.710938 38.675781 45.171875 C 37.726562 44.347656 36.714844 43.601562 35.648438 42.9375 L 34.941406 42.515625 C 34.640625 42.332031 34.257812 42.136719 33.90625 41.953125 C 33.890625 41.945312 33.863281 41.925781 33.84375 41.925781 C 33.835938 41.925781 33.832031 41.933594 33.832031 41.941406 C 33.832031 41.945312 33.832031 41.949219 33.835938 41.953125 C 33.839844 41.964844 33.859375 41.96875 33.867188 41.976562 C 34.210938 42.191406 34.582031 42.421875 34.867188 42.628906 C 35.011719 42.730469 35.574219 43.132812 35.699219 43.222656 C 35.976562 43.433594 36.25 43.648438 36.515625 43.867188 C 36.671875 43.996094 36.824219 44.125 36.980469 44.261719 C 40.207031 47.074219 42.390625 50.640625 43.886719 54.691406 Z M 43.886719 54.695312 " fill-opacity="1" fill-rule="nonzero"/><path fill="#38a93f" d="M 36.855469 29.039062 L 34.785156 29.039062 C 34.421875 29.039062 34.1875 29.261719 34.1875 29.605469 C 34.1875 29.953125 34.421875 30.175781 34.785156 30.175781 L 36.4375 30.175781 L 36.4375 34.875 C 36.4375 35.261719 36.671875 35.511719 37.039062 35.511719 C 37.40625 35.511719 37.644531 35.261719 37.644531 34.875 L 37.644531 29.832031 C 37.644531 29.324219 37.355469 29.035156 36.855469 29.035156 Z M 36.855469 29.039062 " fill-opacity="1" fill-rule="nonzero"/><path fill="#38a93f" d="M 42.398438 28.953125 C 40.449219 28.953125 39.035156 30.34375 39.035156 32.253906 C 39.035156 34.164062 40.449219 35.554688 42.398438 35.554688 C 44.351562 35.554688 45.765625 34.164062 45.765625 32.253906 C 45.765625 30.34375 44.351562 28.953125 42.398438 28.953125 Z M 42.398438 34.429688 C 41.140625 34.429688 40.222656 33.515625 40.222656 32.253906 C 40.222656 30.992188 41.140625 30.078125 42.398438 30.078125 C 43.660156 30.078125 44.578125 30.992188 44.578125 32.253906 C 44.578125 33.515625 43.660156 34.429688 42.398438 34.429688 Z M 42.398438 34.429688 " fill-opacity="1" fill-rule="nonzero"/><path fill="#38a93f" d="M 50.152344 28.953125 C 48.199219 28.953125 46.785156 30.34375 46.785156 32.253906 C 46.785156 34.164062 48.199219 35.554688 50.152344 35.554688 C 52.101562 35.554688 53.515625 34.164062 53.515625 32.253906 C 53.515625 30.34375 52.101562 28.953125 50.152344 28.953125 Z M 50.152344 34.429688 C 48.890625 34.429688 47.972656 33.515625 47.972656 32.253906 C 47.972656 30.992188 48.890625 30.078125 50.152344 30.078125 C 51.410156 30.078125 52.328125 30.992188 52.328125 32.253906 C 52.328125 33.515625 51.410156 34.429688 50.152344 34.429688 Z M 50.152344 34.429688 " fill-opacity="1" fill-rule="nonzero"/><path fill="#38a93f" d="M 61.394531 29.589844 C 61.390625 29.445312 61.328125 29.3125 61.226562 29.214844 C 61.125 29.117188 60.992188 29.066406 60.855469 29.066406 C 60.707031 29.066406 60.5625 29.128906 60.460938 29.234375 L 55.347656 34.660156 C 55.246094 34.765625 55.195312 34.902344 55.199219 35.046875 C 55.203125 35.191406 55.261719 35.328125 55.367188 35.425781 C 55.46875 35.519531 55.601562 35.574219 55.738281 35.574219 C 55.886719 35.574219 56.03125 35.511719 56.132812 35.402344 L 61.246094 29.976562 C 61.347656 29.875 61.398438 29.734375 61.394531 29.589844 Z M 61.394531 29.589844 " fill-opacity="1" fill-rule="nonzero"/><path fill="#38a93f" d="M 56.59375 31.929688 C 57.515625 31.929688 58.269531 31.179688 58.269531 30.253906 C 58.269531 29.328125 57.515625 28.578125 56.59375 28.578125 C 55.667969 28.578125 54.917969 29.328125 54.917969 30.253906 C 54.917969 31.179688 55.667969 31.929688 56.59375 31.929688 Z M 56.59375 29.660156 C 56.921875 29.660156 57.1875 29.925781 57.1875 30.253906 C 57.1875 30.582031 56.921875 30.847656 56.59375 30.847656 C 56.265625 30.847656 56 30.582031 56 30.253906 C 56 29.925781 56.265625 29.660156 56.59375 29.660156 Z M 56.59375 29.660156 " fill-opacity="1" fill-rule="nonzero"/><path fill="#38a93f" d="M 60.15625 32.652344 C 59.246094 32.652344 58.503906 33.394531 58.503906 34.304688 C 58.503906 35.21875 59.246094 35.960938 60.15625 35.960938 C 61.070312 35.960938 61.8125 35.21875 61.8125 34.304688 C 61.8125 33.394531 61.070312 32.652344 60.15625 32.652344 Z M 60.15625 34.875 C 59.84375 34.875 59.585938 34.621094 59.585938 34.304688 C 59.585938 33.992188 59.84375 33.734375 60.15625 33.734375 C 60.472656 33.734375 60.726562 33.992188 60.726562 34.304688 C 60.726562 34.621094 60.472656 34.875 60.15625 34.875 Z M 60.15625 34.875 " fill-opacity="1" fill-rule="nonzero"/></svg>